# xmcd
#
# Track frame offsets:
#	150
#	12796
#	29961
#	46430
#	62268
#	77314
#	95741
#	112645
#	131009
#	150786
#	167111
#	183519
#	211364
#
# Disc length: 3024 seconds
#
# Revision: 1
# Processed by: cddbd v1.5.2PL0 Copyright (c) Steve Scherf et al.
# Submitted via: audiograbber 1.83.01
#
DISCID=9b0bce0d
DTITLE=Kaleidoscopio - Tem Que Valer
DYEAR=2004
DGENRE=Salsa
TTITLE0=Você Me Apareceu
TTITLE1=Tem Que Valer (Versão Electro Bossa)
TTITLE2=Madalena
TTITLE3=Meu Sonho
TTITLE4=Flor de Lis
TTITLE5=Chuva
TTITLE6=Tarde Em Itapuã
TTITLE7=Feliz de Novo
TTITLE8=Tô Que To
TTITLE9=Lua
TTITLE10=Paro Pra Pensar
TTITLE11=Você Me Apareceu (remix Progressive Caranaval)
TTITLE12=Tem Que Valer
EXTD=YEAR: 2004
EXTT0=
EXTT1=
EXTT2=
EXTT3=
EXTT4=
EXTT5=
EXTT6=
EXTT7=
EXTT8=
EXTT9=
EXTT10=
EXTT11=
EXTT12=
PLAYORDER=
